<?xml version="1.0" encoding="UTF-8"?>
<svg width="32px" height="32px" viewBox="0 0 32 32" version="1.1" xmlns="http://www.w3.org/2000/svg" xmlns:xlink="http://www.w3.org/1999/xlink">
    <!-- Generator: Sketch 55.2 (78181) - https://sketchapp.com -->
    <title>star-circle</title>
    <desc>Created with Sketch.</desc>
    <g id="star-circle" stroke="none" stroke-width="1" fill="none" fill-rule="evenodd">
        <path d="M16,0 C24.836556,1.623249e-15 32,7.163444 32,16 C32,24.836556 24.836556,32 16,32 C7.163444,32 0,24.836556 0,16 C3.55271368e-15,7.163444 7.163444,-1.623249e-15 16,0 Z M15.5346589,21.2446443 C15.8259829,21.0914862 16.1740171,21.0914862 16.4653411,21.2446443 L19.4965951,22.8382688 C19.6912556,22.9406079 19.9142237,22.9759226 20.1309813,22.9387457 C20.6753178,22.8453847 21.0409056,22.3284288 20.9475446,21.7840924 L20.3686266,18.4087414 C20.3129886,18.0843474 20.4205371,17.7533472 20.6562232,17.52361 L23.1085592,15.1331732 C23.2660428,14.9796646 23.36853,14.7785222 23.4001545,14.5608852 C23.4795721,14.0143403 23.1008907,13.5068975 22.5543458,13.4274798 L19.1653008,12.9350228 C18.8395907,12.8876943 18.5580251,12.6831249 18.4123631,12.3879815 L16.8967361,9.31698575 C16.7994058,9.11977315 16.6397783,8.96014562 16.4425657,8.86281539 C15.9473121,8.61839309 15.3476862,8.82173209 15.1032639,9.31698575 L13.5876369,12.3879815 C13.4419749,12.6831249 13.1604093,12.8876943 12.8346992,12.9350228 L9.44565418,13.4274798 C9.22801715,13.4591043 9.02687474,13.5615915 8.87336613,13.7190752 C8.48786492,14.1145587 8.49595723,14.747672 8.8914408,15.1331732 L11.3437768,17.52361 C11.5794629,17.7533472 11.6870114,18.0843474 11.6313734,18.4087414 L11.0524554,21.7840924 C11.0152786,22.00085 11.0505933,22.2238181 11.1529323,22.4184785 C11.4099331,22.9073231 12.0145603,23.0952696 12.5034049,22.8382688 L15.5346589,21.2446443 Z" id="Combined-Shape" fill="#F1F2F5"></path>
    </g>
</svg>
