<?xml version="1.0" encoding="UTF-8"?>
<svg width="36px" height="36px" viewBox="0 0 36 36" version="1.1" xmlns="http://www.w3.org/2000/svg" xmlns:xlink="http://www.w3.org/1999/xlink">
    <!-- Generator: Sketch 55.2 (78181) - https://sketchapp.com -->
    <title>star-active</title>
    <desc>Created with Sketch.</desc>
    <g id="star-active" stroke="none" stroke-width="1" fill="none" fill-rule="evenodd">
        <path d="M17.5346589,23.2446443 L14.5034049,24.8382688 C14.0145603,25.0952696 13.4099331,24.9073231 13.1529323,24.4184785 C13.0505933,24.2238181 13.0152786,24.00085 13.0524554,23.7840924 L13.6313734,20.4087414 C13.6870114,20.0843474 13.5794629,19.7533472 13.3437768,19.52361 L10.8914408,17.1331732 C10.4959572,16.747672 10.4878649,16.1145587 10.8733661,15.7190752 C11.0268747,15.5615915 11.2280171,15.4591043 11.4456542,15.4274798 L14.8346992,14.9350228 C15.1604093,14.8876943 15.4419749,14.6831249 15.5876369,14.3879815 L17.1032639,11.3169858 C17.3476862,10.8217321 17.9473121,10.6183931 18.4425657,10.8628154 C18.6397783,10.9601456 18.7994058,11.1197731 18.8967361,11.3169858 L20.4123631,14.3879815 C20.5580251,14.6831249 20.8395907,14.8876943 21.1653008,14.9350228 L24.5543458,15.4274798 C25.1008907,15.5068975 25.4795721,16.0143403 25.4001545,16.5608852 C25.36853,16.7785222 25.2660428,16.9796646 25.1085592,17.1331732 L22.6562232,19.52361 C22.4205371,19.7533472 22.3129886,20.0843474 22.3686266,20.4087414 L22.9475446,23.7840924 C23.0409056,24.3284288 22.6753178,24.8453847 22.1309813,24.9387457 C21.9142237,24.9759226 21.6912556,24.9406079 21.4965951,24.8382688 L18.4653411,23.2446443 C18.1740171,23.0914862 17.8259829,23.0914862 17.5346589,23.2446443 Z" id="Star" fill="#6C63FF"></path>
    </g>
</svg>