<?xml version="1.0" encoding="UTF-8"?>
<svg width="24px" height="24px" viewBox="0 0 24 24" version="1.1" xmlns="http://www.w3.org/2000/svg" xmlns:xlink="http://www.w3.org/1999/xlink">
    <!-- Generator: Sketch 55.2 (78181) - https://sketchapp.com -->
    <title>star</title>
    <desc>Created with Sketch.</desc>
    <defs>
        <path d="M20.4719706,9.93413755 C20.3972254,9.63462272 20.1729898,9.4848653 19.8740091,9.4099866 L15.0903171,8.73607823 L12.9227067,4.39311321 C12.6984711,3.86896226 11.8015289,3.86896226 11.5772933,4.39311321 L9.4096829,8.66119952 L4.70073613,9.4099866 C4.40175538,9.4099866 4.17751982,9.63462272 4.02802945,9.93413755 C3.95328426,10.2336524 4.02802945,10.5331672 4.25226501,10.6829246 L7.6905436,14.0524664 L6.86834655,18.8447037 C6.79360136,19.1442185 6.94309173,19.4437334 7.16732729,19.5934908 C7.39156285,19.7432482 7.6905436,19.8181269 7.98952435,19.6683695 L12.25,17.4220083 L16.5104757,19.6683695 C16.659966,19.6683695 16.7347112,19.6683695 16.8842016,19.6683695 C17.033692,19.6683695 17.1831823,19.5934908 17.3326727,19.5186121 C17.5569083,19.3688547 17.7063986,19.0693398 17.6316535,18.769825 L16.8094564,13.9775877 L20.247735,10.6080459 C20.4719706,10.4582885 20.5467157,10.1587737 20.4719706,9.93413755 Z" id="path-1"></path>
    </defs>
    <g id="star" stroke="none" stroke-width="1" fill="none" fill-rule="evenodd">
        <mask id="mask-2" fill="white">
            <use xlink:href="#path-1"></use>
        </mask>
        <use id="Mask" fill="#FFFFFF" fill-rule="nonzero" xlink:href="#path-1"></use>
    </g>
</svg>