<?xml version="1.0" encoding="UTF-8"?>
<svg width="24px" height="24px" viewBox="0 0 24 24" version="1.1" xmlns="http://www.w3.org/2000/svg" xmlns:xlink="http://www.w3.org/1999/xlink">
    <!-- Generator: Sketch 55.2 (78181) - https://sketchapp.com -->
    <title>about</title>
    <desc>Created with Sketch.</desc>
    <g id="about" stroke="none" stroke-width="1" fill="none" fill-rule="evenodd">
        <path d="M11.5,22.5 C5.70101013,22.5 1,17.7989899 1,12 C1,6.20101013 5.70101013,1.5 11.5,1.5 C17.2989899,1.5 22,6.20101013 22,12 C22,17.7989899 17.2989899,22.5 11.5,22.5 Z M8.022,9.002 L9.622,9.386 C9.71800048,9.39666672 9.78733312,9.39400008 9.83,9.378 C9.87266688,9.36199992 9.91533312,9.31133376 9.958,9.226 C10.1180008,8.82066464 10.3846648,8.4980012 10.758,8.258 C11.1313352,8.0179988 11.5313312,7.898 11.958,7.898 C12.3953355,7.898 12.7553319,8.01266552 13.038,8.242 C13.3206681,8.47133448 13.462,8.7726648 13.462,9.146 C13.462,9.43400144 13.3793342,9.6979988 13.214,9.938 C13.0486658,10.1780012 12.7793352,10.4899981 12.406,10.874 C12.064665,11.215335 11.7846678,11.5219986 11.566,11.794 C11.3473322,12.0660014 11.1606674,12.3993314 11.006,12.794 C10.8513326,13.1886686 10.774,13.6313309 10.774,14.122 C10.774,14.3673346 10.8859989,14.49 11.11,14.49 L12.422,14.49 C12.5073338,14.49 12.5819997,14.460667 12.646,14.402 C12.7100003,14.343333 12.742,14.2713338 12.742,14.186 C12.742,13.6739974 12.8699987,13.2420018 13.126,12.89 C13.3820013,12.5379982 13.7659974,12.1380022 14.278,11.69 C14.6300018,11.3806651 14.9126656,11.1140011 15.126,10.89 C15.3393344,10.6659989 15.5206659,10.3966682 15.67,10.082 C15.8193341,9.76733176 15.894,9.41266864 15.894,9.018 C15.894,8.50599744 15.731335,8.0366688 15.406,7.61 C15.080665,7.1833312 14.6193363,6.84466792 14.022,6.594 C13.4246637,6.34333208 12.7420038,6.218 11.974,6.218 C11.0033285,6.218 10.1660035,6.42599792 9.462,6.842 C8.75799648,7.25800208 8.23533504,7.86066272 7.894,8.65 C7.88333328,8.68200016 7.878,8.72999968 7.878,8.794 C7.878,8.9006672 7.92599952,8.96999984 8.022,9.002 Z M13.078,17.866 L13.078,15.898 C13.078,15.7273325 13.0033341,15.642 12.854,15.642 L10.662,15.642 C10.4913325,15.642 10.406,15.737999 10.406,15.93 L10.406,17.914 C10.406,18.0313339 10.4299998,18.1166664 10.478,18.17 C10.5260002,18.2233336 10.6139994,18.25 10.742,18.25 L12.646,18.25 C12.7953341,18.25 12.9046663,18.220667 12.974,18.162 C13.0433337,18.103333 13.078,18.0046674 13.078,17.866 Z" id="Combined-Shape" fill="#FFFFFF"></path>
    </g>
</svg>