<?xml version="1.0" encoding="UTF-8"?>
<svg width="36px" height="36px" viewBox="0 0 36 36" version="1.1" xmlns="http://www.w3.org/2000/svg" xmlns:xlink="http://www.w3.org/1999/xlink">
    <!-- Generator: Sketch 55.2 (78181) - https://sketchapp.com -->
    <title>download</title>
    <desc>Created with Sketch.</desc>
    <g id="download" stroke="none" stroke-width="1" fill="none" fill-rule="evenodd">
        <path d="M20.8399576,17.9517762 L23.6967172,17.9517762 C24.2490019,17.9517762 24.6967172,18.3994914 24.6967172,18.9517762 C24.6967172,19.2169927 24.5913603,19.4713466 24.4038239,19.6588829 L18.7071068,25.3556001 C18.3165825,25.7461244 17.6834175,25.7461244 17.2928932,25.3556001 L11.5961761,19.6588829 C11.2056518,19.2683587 11.2056518,18.6351937 11.5961761,18.2446694 C11.7837124,18.057133 12.0380663,17.9517762 12.3032828,17.9517762 L15.1600424,17.9517762 L14.9487537,12.0356915 C14.9290418,11.4837587 15.3604921,11.020349 15.912425,11.0006371 C15.9243175,11.0002124 15.9362165,11 15.9481165,11 L20.0518835,11 C20.6041682,11 21.0518835,11.4477153 21.0518835,12 C21.0518835,12.0119 21.051671,12.0237991 21.0512463,12.0356915 L20.8399576,17.9517762 Z" id="Combined-Shape" fill="#878697"></path>
    </g>
</svg>