<?xml version="1.0" encoding="UTF-8"?>
<svg width="96px" height="40px" viewBox="0 0 96 40" version="1.1" xmlns="http://www.w3.org/2000/svg" xmlns:xlink="http://www.w3.org/1999/xlink">
    <!-- Generator: Sketch 55.2 (78181) - https://sketchapp.com -->
    <title>ff</title>
    <desc>Created with Sketch.</desc>
    <defs>
        <linearGradient x1="50%" y1="100%" x2="50%" y2="3.061617e-15%" id="linearGradient-1">
            <stop stop-color="#FF7760" offset="0%"></stop>
            <stop stop-color="#DDD8FF" offset="100%"></stop>
        </linearGradient>
        <linearGradient x1="50%" y1="0%" x2="50%" y2="100%" id="linearGradient-2">
            <stop stop-color="#FF7760" offset="0%"></stop>
            <stop stop-color="#DDD8FF" offset="100%"></stop>
        </linearGradient>
    </defs>
    <g id="ff" stroke="none" stroke-width="1" fill="none" fill-rule="evenodd">
        <g id="Group-3-Copy" transform="translate(2.000000, 1.000000)">
            <text id="Font-Finder" font-family="LibreFranklin-Bold, Libre Franklin" font-size="18" font-weight="bold" line-spacing="18" letter-spacing="-0.375">
                <tspan x="38" y="21" fill="#FF7760">Font</tspan>
                <tspan x="83.048" y="23.3520813" fill="#FFFFFF"></tspan>
                <tspan x="38" y="39" fill="#FFFFFF">Finder</tspan>
            </text>
            <g id="Group" fill-rule="nonzero">
                <path d="M12.0835471,14.2569977 L7.03573389,15.6095552 L7.0255616,9.34055002 C7.01969524,5.71488811 9.45288428,2.5385675 12.9550093,1.60017592 L18.6067151,0.0858059186 C19.9403804,-0.27154861 21.3112228,0.519907613 21.6685773,1.85357287 C22.0259318,3.18723813 21.2344756,4.55808052 19.9008103,4.91543505 L15.0532691,6.21432981 C13.3062517,6.6824417 12.0907101,8.26460759 12.0885481,10.0732517 L12.0835471,14.2569977 Z M12.0708586,24.8719784 L12.0623171,32.0176041 C12.0606666,33.398315 10.9400414,34.5162644 9.5593305,34.5146158 C8.17861961,34.5129635 7.06067022,33.3923383 7.06232064,32.0116274 L7.05292715,26.2165291 L12.0708586,24.8719784 Z" id="Combined-Shape" fill="url(#linearGradient-1)"></path>
                <path d="M27.0245346,10.2535722 L14.2724388,13.6704859 L14.2185824,10.4689979 C14.199287,9.32199105 14.9631008,8.30904269 16.0711811,8.01213348 L25.7304393,5.42394303 C27.0641046,5.0665885 28.434947,5.85804472 28.7923015,7.19170998 C29.149656,8.52537524 28.3581998,9.89621763 27.0245346,10.2535722 Z M19.4284168,22.9005266 L19.6339772,35.1200323 C19.6572006,36.5005489 18.5568972,37.638505 17.1763806,37.6617285 C15.7958641,37.684952 14.657908,36.5846485 14.6346845,35.204132 L14.4501491,24.2344495 L19.4284168,22.9005266 Z" id="Combined-Shape" fill="url(#linearGradient-2)"></path>
                <path d="M3.1476681,24.4159306 C1.81400284,24.7732851 0.443160448,23.9818289 0.0858059186,22.6481636 C-0.27154861,21.3144984 0.519907613,19.943656 1.85357287,19.5863015 L24.2908418,13.5742534 C25.624507,13.2168989 26.9953494,14.0083551 27.352704,15.3420203 C27.7100585,16.6756856 26.9186023,18.046528 25.584937,18.4038825 L3.1476681,24.4159306 Z" id="Path" fill="#DDD8FF"></path>
            </g>
        </g>
    </g>
</svg>