<?xml version="1.0" encoding="UTF-8"?>
<svg width="96px" height="40px" viewBox="0 0 96 40" version="1.1" xmlns="http://www.w3.org/2000/svg" xmlns:xlink="http://www.w3.org/1999/xlink">
    <!-- Generator: Sketch 55.2 (78181) - https://sketchapp.com -->
    <title>Artboard</title>
    <desc>Created with Sketch.</desc>
    <defs>
        <path d="M39.26,7.986 C39.26,7.75799886 39.355999,7.644 39.548,7.644 L48.476,7.644 C48.6560009,7.644 48.746,7.74599898 48.746,7.95 L48.728,9.57 C48.728,9.82200126 48.6080012,9.948 48.368,9.948 L42.752,9.948 C42.6319994,9.948 42.5450003,9.97199976 42.491,10.02 C42.4369997,10.0680002 42.41,10.1399995 42.41,10.236 L42.41,13.026 C42.41,13.218001 42.4999991,13.314 42.68,13.314 L46.586,13.314 C46.778001,13.314 46.874,13.409999 46.874,13.602 L46.874,15.312 C46.874,15.4800008 46.7840009,15.564 46.604,15.564 L42.662,15.564 C42.4939992,15.564 42.41,15.6419992 42.41,15.798 L42.41,20.586 C42.41,20.7420008 42.3740004,20.8499997 42.302,20.91 C42.2299996,20.9700003 42.1100008,21 41.942,21 L39.656,21 C39.5119993,21 39.4100003,20.9700003 39.35,20.91 C39.2899997,20.8499997 39.26,20.7540007 39.26,20.622 L39.26,7.986 Z M53.102,21.18 C52.1539953,21.18 51.3170036,20.9730021 50.591,20.559 C49.8649964,20.1449979 49.298002,19.5660037 48.89,18.822 C48.481998,18.0779963 48.278,17.2320047 48.278,16.284 C48.278,15.2999951 48.4849979,14.4300038 48.899,13.674 C49.3130021,12.9179962 49.8889963,12.3300021 50.627,11.91 C51.3650037,11.4899979 52.1959954,11.28 53.12,11.28 C54.0680047,11.28 54.9079963,11.4929979 55.64,11.919 C56.3720037,12.3450021 56.938998,12.9359962 57.341,13.692 C57.743002,14.4480038 57.944,15.3059952 57.944,16.266 C57.944,17.2140047 57.740002,18.0599963 57.332,18.804 C56.923998,19.5480037 56.3540037,20.1299979 55.622,20.55 C54.8899963,20.9700021 54.0500047,21.18 53.102,21.18 Z M53.12,19.344 C53.7800033,19.344 54.2809983,19.0830026 54.623,18.561 C54.9650017,18.0389974 55.136,17.2620052 55.136,16.23 C55.136,15.1859948 54.9650017,14.3970027 54.623,13.863 C54.2809983,13.3289973 53.7800033,13.062 53.12,13.062 C52.4599967,13.062 51.9560017,13.3289973 51.608,13.863 C51.2599983,14.3970027 51.086,15.1859948 51.086,16.23 C51.086,17.2500051 51.2599983,18.0239974 51.608,18.552 C51.9560017,19.0800026 52.4599967,19.344 53.12,19.344 Z M59.87,21 C59.7379993,21 59.6420003,20.9730003 59.582,20.919 C59.5219997,20.8649997 59.492,20.7720007 59.492,20.64 L59.492,11.802 C59.492,11.5739989 59.587999,11.46 59.78,11.46 L61.958,11.46 C62.1380009,11.46 62.228,11.561999 62.228,11.766 L62.228,12.648 C62.228,12.7440005 62.2579997,12.792 62.318,12.792 C62.3540002,12.792 62.3959998,12.7680002 62.444,12.72 C62.9360025,12.2519977 63.4279975,11.8950012 63.92,11.649 C64.4120025,11.4029988 64.9339972,11.28 65.486,11.28 C66.3620044,11.28 67.0549975,11.5379974 67.565,12.054 C68.0750026,12.5700026 68.33,13.2599957 68.33,14.124 L68.33,20.568 C68.33,20.8560014 68.1860014,21 67.898,21 L65.9,21 C65.7679993,21 65.6780002,20.9730003 65.63,20.919 C65.5819998,20.8649997 65.558,20.7720007 65.558,20.64 L65.558,14.556 C65.558,14.147998 65.4470011,13.8330011 65.225,13.611 C65.0029989,13.3889989 64.6760022,13.278 64.244,13.278 C63.8839982,13.278 63.5510015,13.3679991 63.245,13.548 C62.9389985,13.7280009 62.6120017,14.0099981 62.264,14.394 L62.264,20.586 C62.264,20.7300007 62.2280004,20.8349997 62.156,20.901 C62.0839996,20.9670003 61.9640008,21 61.796,21 L59.87,21 Z M74.234,13.368 C74.1019993,13.368 74.036,13.4399993 74.036,13.584 L74.036,17.922 C74.036,18.330002 74.131999,18.6209991 74.324,18.795 C74.516001,18.9690009 74.8219979,19.056 75.242,19.056 L76.214,19.056 C76.2980004,19.056 76.3639998,19.0829997 76.412,19.137 C76.4600002,19.1910003 76.484,19.2659995 76.484,19.362 L76.466,20.46 C76.466,20.7000012 76.3340013,20.8439998 76.07,20.892 C75.5659975,20.9640004 74.8520046,21 73.928,21 C73.0879958,21 72.4340023,20.802002 71.966,20.406 C71.4979977,20.009998 71.264,19.4340038 71.264,18.678 L71.264,13.638 C71.264,13.4579991 71.1860008,13.368 71.03,13.368 L69.932,13.368 C69.7039989,13.368 69.59,13.266001 69.59,13.062 L69.59,11.73 C69.59,11.5499991 69.6979989,11.46 69.914,11.46 L71.156,11.46 C71.2520005,11.46 71.3119999,11.3940007 71.336,11.262 L71.588,8.526 C71.6120001,8.32199898 71.7019992,8.22 71.858,8.22 L73.82,8.22 C73.9040004,8.22 73.9729997,8.2499997 74.027,8.31 C74.0810003,8.3700003 74.108,8.45399946 74.108,8.562 L74.108,11.262 C74.108,11.3820006 74.1679994,11.442 74.288,11.442 L76.178,11.442 C76.3940011,11.442 76.502,11.537999 76.502,11.73 L76.502,13.062 C76.502,13.266001 76.3820012,13.368 76.142,13.368 L74.234,13.368 Z" id="path-1"></path>
        <path d="M39.26,25.986 C39.26,25.7579989 39.355999,25.644 39.548,25.644 L48.476,25.644 C48.6560009,25.644 48.746,25.745999 48.746,25.95 L48.728,27.57 C48.728,27.8220013 48.6080012,27.948 48.368,27.948 L42.752,27.948 C42.6319994,27.948 42.5450003,27.9719998 42.491,28.02 C42.4369997,28.0680002 42.41,28.1399995 42.41,28.236 L42.41,31.026 C42.41,31.218001 42.4999991,31.314 42.68,31.314 L46.586,31.314 C46.778001,31.314 46.874,31.409999 46.874,31.602 L46.874,33.312 C46.874,33.4800008 46.7840009,33.564 46.604,33.564 L42.662,33.564 C42.4939992,33.564 42.41,33.6419992 42.41,33.798 L42.41,38.586 C42.41,38.7420008 42.3740004,38.8499997 42.302,38.91 C42.2299996,38.9700003 42.1100008,39 41.942,39 L39.656,39 C39.5119993,39 39.4100003,38.9700003 39.35,38.91 C39.2899997,38.8499997 39.26,38.7540007 39.26,38.622 L39.26,25.986 Z M53.156,27.858 C53.156,28.1580015 52.9940016,28.308 52.67,28.308 L50.726,28.308 C50.5819993,28.308 50.4800003,28.2750003 50.42,28.209 C50.3599997,28.1429997 50.33,28.0380007 50.33,27.894 L50.33,26.004 C50.33,25.7639988 50.431999,25.644 50.636,25.644 L52.868,25.644 C52.9520004,25.644 53.0209997,25.6739997 53.075,25.734 C53.1290003,25.7940003 53.156,25.8779995 53.156,25.986 L53.156,27.858 Z M53.12,38.568 C53.12,38.7240008 53.0840004,38.8349997 53.012,38.901 C52.9399996,38.9670003 52.8140009,39 52.634,39 L50.744,39 C50.5999993,39 50.4980003,38.9700003 50.438,38.91 C50.3779997,38.8499997 50.348,38.7540007 50.348,38.622 L50.348,29.802 C50.348,29.5739989 50.449999,29.46 50.654,29.46 L52.85,29.46 C53.0300009,29.46 53.12,29.561999 53.12,29.766 L53.12,38.568 Z M55.496,39 C55.3639993,39 55.2680003,38.9730003 55.208,38.919 C55.1479997,38.8649997 55.118,38.7720007 55.118,38.64 L55.118,29.802 C55.118,29.5739989 55.213999,29.46 55.406,29.46 L57.584,29.46 C57.7640009,29.46 57.854,29.561999 57.854,29.766 L57.854,30.648 C57.854,30.7440005 57.8839997,30.792 57.944,30.792 C57.9800002,30.792 58.0219998,30.7680002 58.07,30.72 C58.5620025,30.2519977 59.0539975,29.8950012 59.546,29.649 C60.0380025,29.4029988 60.5599972,29.28 61.112,29.28 C61.9880044,29.28 62.6809974,29.5379974 63.191,30.054 C63.7010026,30.5700026 63.956,31.2599957 63.956,32.124 L63.956,38.568 C63.956,38.8560014 63.8120014,39 63.524,39 L61.526,39 C61.3939993,39 61.3040002,38.9730003 61.256,38.919 C61.2079998,38.8649997 61.184,38.7720007 61.184,38.64 L61.184,32.556 C61.184,32.147998 61.0730011,31.8330011 60.851,31.611 C60.6289989,31.3889989 60.3020022,31.278 59.87,31.278 C59.5099982,31.278 59.1770015,31.3679991 58.871,31.548 C58.5649985,31.7280009 58.2380017,32.0099981 57.89,32.394 L57.89,38.586 C57.89,38.7300007 57.8540004,38.8349997 57.782,38.901 C57.7099996,38.9670003 57.5900008,39 57.422,39 L55.496,39 Z M72.47,39 C72.2179987,39 72.092,38.8800012 72.092,38.64 L72.092,38.136 C72.092,38.0399995 72.0620003,37.992 72.002,37.992 C71.9659998,37.992 71.9120004,38.0159998 71.84,38.064 C71.4919983,38.4000017 71.1110021,38.669999 70.697,38.874 C70.2829979,39.078001 69.7880029,39.18 69.212,39.18 C68.0839944,39.18 67.1750035,38.7600042 66.485,37.92 C65.7949966,37.0799958 65.45,35.8740079 65.45,34.302 C65.45,33.3179951 65.6269982,32.4450038 65.981,31.683 C66.3350018,30.9209962 66.811997,30.3300021 67.412,29.91 C68.012003,29.4899979 68.6719964,29.28 69.392,29.28 C69.8600023,29.28 70.2829981,29.3579992 70.661,29.514 C71.0390019,29.6700008 71.4019983,29.9099984 71.75,30.234 C71.8340004,30.2940003 71.8939998,30.324 71.93,30.324 C72.0140004,30.324 72.056,30.2460008 72.056,30.09 L72.056,25.968 C72.056,25.7519989 72.151999,25.644 72.344,25.644 L74.54,25.644 C74.6240004,25.644 74.6929997,25.6739997 74.747,25.734 C74.8010003,25.7940003 74.828,25.8779995 74.828,25.986 L74.828,38.622 C74.828,38.7540007 74.7980003,38.8499997 74.738,38.91 C74.6779997,38.9700003 74.5700008,39 74.414,39 L72.47,39 Z M72.056,31.944 C71.7799986,31.6439985 71.5070013,31.4220007 71.237,31.278 C70.9669986,31.1339993 70.6640017,31.062 70.328,31.062 C69.6919968,31.062 69.1880019,31.3229974 68.816,31.845 C68.4439981,32.3670026 68.258,33.1739945 68.258,34.266 C68.258,35.3700055 68.4379982,36.1769975 68.798,36.687 C69.1580018,37.1970026 69.6559968,37.452 70.292,37.452 C70.7720024,37.452 71.1859983,37.2930016 71.534,36.975 C71.8820017,36.6569984 72.056,36.2880021 72.056,35.868 L72.056,31.944 Z M79.238,35.04 C79.238,35.7120034 79.4629977,36.2549979 79.913,36.669 C80.3630023,37.0830021 80.9239966,37.29 81.596,37.29 C82.0280022,37.29 82.4269982,37.1970009 82.793,37.011 C83.1590018,36.8249991 83.5279981,36.5160022 83.9,36.084 C83.9480002,36.0359998 83.9959998,36.012 84.044,36.012 C84.0800002,36.012 84.1399996,36.0299998 84.224,36.066 L85.52,36.606 C85.6040004,36.6420002 85.646,36.7019996 85.646,36.786 C85.646,36.8460003 85.6220002,36.9059997 85.574,36.966 C84.9979971,37.7820041 84.3800033,38.3549984 83.72,38.685 C83.0599967,39.0150017 82.2380049,39.18 81.254,39.18 C80.3299954,39.18 79.4960037,38.976002 78.752,38.568 C78.0079963,38.159998 77.4260021,37.5930036 77.006,36.867 C76.5859979,36.1409964 76.376,35.3100047 76.376,34.374 C76.376,33.365995 76.5919978,32.4750039 77.024,31.701 C77.4560022,30.9269961 78.0409963,30.3300021 78.779,29.91 C79.5170037,29.4899979 80.3239956,29.28 81.2,29.28 C82.1120046,29.28 82.9219965,29.480998 83.63,29.883 C84.3380035,30.285002 84.889998,30.8639962 85.286,31.62 C85.682002,32.3760038 85.88,33.2759948 85.88,34.32 C85.88,34.4760008 85.8650002,34.5839997 85.835,34.644 C85.8049999,34.7040003 85.7180007,34.7399999 85.574,34.752 L79.454,34.752 C79.3099993,34.752 79.238,34.847999 79.238,35.04 Z M82.856,33.24 C82.9880007,33.24 83.0719998,33.2250001 83.108,33.195 C83.1440002,33.1649999 83.162,33.0960005 83.162,32.988 C83.162,32.6759984 83.0900007,32.3640016 82.946,32.052 C82.8019993,31.7399984 82.5920014,31.482001 82.316,31.278 C82.0399986,31.073999 81.704002,30.972 81.308,30.972 C80.707997,30.972 80.2160019,31.1819979 79.832,31.602 C79.4479981,32.0220021 79.2619999,32.5619967 79.274,33.222 L82.856,33.24 Z M87.734,39 C87.4819987,39 87.356,38.8800012 87.356,38.64 L87.356,29.802 C87.356,29.5739989 87.451999,29.46 87.644,29.46 L89.75,29.46 C89.942001,29.46 90.038,29.561999 90.038,29.766 L90.038,30.828 C90.038,30.8760002 90.0499999,30.9119999 90.074,30.936 C90.0980001,30.9600001 90.1219999,30.972 90.146,30.972 C90.1820002,30.972 90.2299997,30.9420003 90.29,30.882 C90.6500018,30.4019976 91.0759975,30.0150015 91.568,29.721 C92.0600025,29.4269985 92.5279978,29.28 92.972,29.28 C93.4040022,29.28 93.62,29.381999 93.62,29.586 L93.62,31.674 C93.62,31.7580004 93.5960002,31.8239998 93.548,31.872 C93.4999998,31.9200002 93.4340004,31.9320001 93.35,31.908 C92.9659981,31.8119995 92.5460023,31.764 92.09,31.764 C91.7899985,31.764 91.4870015,31.8389993 91.181,31.989 C90.8749985,32.1390008 90.623001,32.3369988 90.425,32.583 C90.226999,32.8290012 90.128,33.0779987 90.128,33.33 L90.128,38.586 C90.128,38.8620014 89.9720016,39 89.66,39 L87.734,39 Z" id="path-2"></path>
        <linearGradient x1="50%" y1="100%" x2="50%" y2="3.061617e-15%" id="linearGradient-3">
            <stop stop-color="#FF7760" offset="0%"></stop>
            <stop stop-color="#DDD8FF" offset="100%"></stop>
        </linearGradient>
        <linearGradient x1="50%" y1="0%" x2="50%" y2="100%" id="linearGradient-4">
            <stop stop-color="#FF7760" offset="0%"></stop>
            <stop stop-color="#DDD8FF" offset="100%"></stop>
        </linearGradient>
    </defs>
    <g id="Artboard" stroke="none" stroke-width="1" fill="none" fill-rule="evenodd">
        <g id="ff" fill-rule="nonzero">
            <g id="Font">
                <use fill="#000000" xlink:href="#path-1"></use>
                <use fill="#FF7760" xlink:href="#path-1"></use>
            </g>
            <g id="Finder">
                <use fill="#000000" xlink:href="#path-2"></use>
                <use fill="#FFFFFF" xlink:href="#path-2"></use>
            </g>
            <g id="Group">
                <path d="M12.0835471,14.2569977 L7.03573389,15.6095552 L7.02555102,9.34055002 C7.01969524,5.71488811 9.45288428,2.5385675 12.9550093,1.60017592 L18.6067151,0.0858059186 C19.9403804,-0.27154861 21.3112228,0.519907613 21.6685773,1.85357287 C22.0259318,3.18723813 21.2344756,4.55808052 19.9008103,4.91543505 L15.0532691,6.21432981 C13.3062517,6.6824417 12.0907101,8.26460759 12.0885481,10.0732517 L12.0835471,14.2569977 Z M12.0708586,24.8719784 L12.0623171,32.0176041 C12.0606666,33.398315 10.9400414,34.5162644 9.5593305,34.5146176 C8.17861961,34.5129635 7.06067022,33.3923383 7.06232064,32.0116274 L7.05292715,26.2165291 L12.0708586,24.8719784 Z" id="Combined-Shape" fill="url(#linearGradient-3)"></path>
                <path d="M27.0245346,10.2535722 L14.2724388,13.6704859 L14.2185824,10.4689979 C14.199287,9.32199105 14.9631008,8.30904269 16.0711811,8.01213348 L25.7304393,5.42394303 C27.0641046,5.0665885 28.434947,5.85804472 28.7923015,7.19170998 C29.149656,8.52537524 28.3581998,9.89621763 27.0245346,10.2535722 Z M19.4284168,22.9005266 L19.6339772,35.1200323 C19.6572006,36.5005489 18.5568972,37.638505 17.1763806,37.6617285 C15.7958641,37.684952 14.657908,36.5846485 14.6346845,35.204132 L14.4501491,24.2344495 L19.4284168,22.9005266 Z" id="Combined-Shape" fill="url(#linearGradient-4)"></path>
                <path d="M3.1476681,24.4159306 C1.81400284,24.7732851 0.443160448,23.9818289 0.0858059186,22.6481636 C-0.27154861,21.3144984 0.519907613,19.943656 1.85357287,19.5863015 L24.2908418,13.5742534 C25.624507,13.2168989 26.9953494,14.0083551 27.352704,15.3420203 C27.7100585,16.6756856 26.9186023,18.046528 25.584937,18.4038825 L3.1476681,24.4159306 Z" id="Path" fill="#DDD8FF"></path>
            </g>
        </g>
    </g>
</svg>