<?xml version="1.0" encoding="UTF-8"?>
<svg width="32px" height="32px" viewBox="0 0 32 32" version="1.1" xmlns="http://www.w3.org/2000/svg" xmlns:xlink="http://www.w3.org/1999/xlink">
    <!-- Generator: Sketch 55.2 (78181) - https://sketchapp.com -->
    <title>star-inactive</title>
    <desc>Created with Sketch.</desc>
    <g id="star-inactive" stroke="none" stroke-width="1" fill="none" fill-rule="evenodd">
        <path d="M15.5346589,21.2446443 L12.5034049,22.8382688 C12.0145603,23.0952696 11.4099331,22.9073231 11.1529323,22.4184785 C11.0505933,22.2238181 11.0152786,22.00085 11.0524554,21.7840924 L11.6313734,18.4087414 C11.6870114,18.0843474 11.5794629,17.7533472 11.3437768,17.52361 L8.8914408,15.1331732 C8.49595723,14.747672 8.48786492,14.1145587 8.87336613,13.7190752 C9.02687474,13.5615915 9.22801715,13.4591043 9.44565418,13.4274798 L12.8346992,12.9350228 C13.1604093,12.8876943 13.4419749,12.6831249 13.5876369,12.3879815 L15.1032639,9.31698575 C15.3476862,8.82173209 15.9473121,8.61839309 16.4425657,8.86281539 C16.6397783,8.96014562 16.7994058,9.11977315 16.8967361,9.31698575 L18.4123631,12.3879815 C18.5580251,12.6831249 18.8395907,12.8876943 19.1653008,12.9350228 L22.5543458,13.4274798 C23.1008907,13.5068975 23.4795721,14.0143403 23.4001545,14.5608852 C23.36853,14.7785222 23.2660428,14.9796646 23.1085592,15.1331732 L20.6562232,17.52361 C20.4205371,17.7533472 20.3129886,18.0843474 20.3686266,18.4087414 L20.9475446,21.7840924 C21.0409056,22.3284288 20.6753178,22.8453847 20.1309813,22.9387457 C19.9142237,22.9759226 19.6912556,22.9406079 19.4965951,22.8382688 L16.4653411,21.2446443 C16.1740171,21.0914862 15.8259829,21.0914862 15.5346589,21.2446443 Z" id="Star" fill="#D2D6E0"></path>
    </g>
</svg>